<?xml version="1.0" encoding="UTF-8"?>
<svg id="_レイヤー_2" data-name="レイヤー 2" xmlns="http://www.w3.org/2000/svg" viewBox="0 0 46.77 59.04">
  <defs>
    <style>
      .cls-1 {
        fill: #2962ff;
      }

      .cls-1, .cls-2 {
        stroke-width: 0px;
      }

      .cls-2 {
        fill: #eee;
      }
    </style>
  </defs>
  <g id="_レイヤー_1-2" data-name="レイヤー 1">
    <path class="cls-1" d="M14.33,31V1.83l-1.21-.81C7.97,3.08,4.33,8.11,4.33,14v10c0,7.73,6.27,14,14,14h10c4.72,0,8.88-2.35,11.42-5.93v-1.07H14.33Z"/>
    <path class="cls-2" d="M28.33,0h-10c-1.84,0-3.6.37-5.21,1.01-3.33,3.24-5.79,8.51-5.79,12.99,0,6.77.94,10.74,3.71,14.61.22.3.36.65.38,1.02.04.83-.13,2.37-1.63,3.74-.16.15-.06.42.16.43.94.04,2.84-.01,4.8-.88.56-.25,1.19-.2,1.73.08,3.31,1.76,7.19,1.99,10.86,1.99,4.68,0,9.34-1.04,12.42-2.92,1.62-2.28,2.58-5.07,2.58-8.08v-10c0-7.73-6.27-14-14-14Z"/>
    <g>
      <path class="cls-1" d="M36.08,22c-2.07,0-3.75-1.68-3.75-3.75s1.68-3.75,3.75-3.75,3.75,1.68,3.75,3.75-1.68,3.75-3.75,3.75ZM36.08,16c-1.24,0-2.25,1.01-2.25,2.25s1.01,2.25,2.25,2.25,2.25-1.01,2.25-2.25-1.01-2.25-2.25-2.25Z"/>
      <path class="cls-1" d="M30.83,22h-1c-.28,0-.5-.22-.5-.5v-8.5h1.5v9Z"/>
      <path class="cls-1" d="M26.33,14.75v.52c-.63-.48-1.4-.77-2.25-.77-2.07,0-3.75,1.68-3.75,3.75s1.68,3.75,3.75,3.75c.85,0,1.62-.29,2.25-.77v.27c0,.28.22.5.5.5h1v-7.25h-1.5ZM24.08,20.5c-1.24,0-2.25-1.01-2.25-2.25s1.01-2.25,2.25-2.25,2.25,1.01,2.25,2.25-1.01,2.25-2.25,2.25Z"/>
      <path class="cls-1" d="M20.58,13h-8v1.5h5.32l-5.57,6.5h.03c-.16.21-.28.46-.28.75v.25h7.5c.28,0,.5-.22.5-.5v-1h-5.32l5.57-6.5h-.03c.16-.21.28-.46.28-.75v-.25Z"/>
    </g>
    <g>
      <path class="cls-1" d="M16.57,54.43c.21.36.32.77.32,1.23,0,.68-.19,1.27-.56,1.78-.38.51-.9.9-1.58,1.18-.67.28-1.45.41-2.33.41-.83,0-1.56-.12-2.17-.35-.62-.24-1.1-.57-1.43-1.01-.34-.44-.5-.96-.5-1.54,0-.71.19-1.32.58-1.82s.95-.87,1.68-1.11c-.63-.45-.94-1.06-.94-1.83,0-.64.17-1.2.52-1.67.34-.47.83-.83,1.44-1.09.62-.25,1.32-.38,2.11-.38s1.41.11,1.97.33c.56.22,1,.53,1.32.94.31.41.47.88.47,1.42,0,.61-.16,1.14-.46,1.59-.31.45-.76.79-1.33,1.02.4.24.7.54.91.9ZM14.26,57.02c.44-.33.66-.77.66-1.34,0-.48-.19-.86-.58-1.13-.39-.27-.93-.41-1.62-.41-.75,0-1.34.17-1.78.5-.44.33-.66.77-.66,1.33,0,.48.19.86.58,1.13.39.28.92.41,1.6.41.76,0,1.36-.16,1.8-.49ZM12.12,50.19c-.38.29-.56.68-.56,1.19,0,.41.17.74.5.97.33.24.79.36,1.38.36.64,0,1.15-.14,1.53-.43s.57-.67.57-1.16c0-.42-.17-.75-.51-1-.34-.24-.8-.37-1.38-.37-.64,0-1.15.14-1.52.43Z"/>
      <path class="cls-1" d="M36.5,50.02l-.74,2.43h.79c1.31,0,2.29.25,2.96.75s.99,1.2.99,2.1c0,.74-.2,1.39-.58,1.96-.39.57-.94,1-1.64,1.31-.71.31-1.51.47-2.42.47-.79,0-1.51-.11-2.16-.33-.65-.22-1.19-.53-1.61-.93l.97-1.48c.32.32.74.58,1.25.76.51.19,1.07.29,1.67.29.82,0,1.45-.16,1.9-.48.45-.32.67-.77.67-1.35,0-.94-.79-1.41-2.36-1.41h-2.7l1.67-5.71h6.17l-.33,1.63h-4.48Z"/>
      <g>
        <path class="cls-1" d="M4.43,45.7H1.98l-.68,1.5H0l3.4-7h1.2l1.29,7h-1.21l-.25-1.5ZM4.22,44.47l-.44-2.7-1.24,2.7h1.68Z"/>
        <path class="cls-1" d="M12.83,40.2l-1.04,7h-1.14l.61-4.16-2,3.42h-.54l-1.08-3.46-.63,4.2h-1.14l1.05-7h.99l1.31,4.36,2.56-4.36h1.04Z"/>
      </g>
      <g>
        <path class="cls-1" d="M29.92,40.48c.36.38.54.92.54,1.6,0,.59-.1,1.1-.31,1.54-.21.44-.5.77-.88,1s-.83.35-1.35.35h-1.17l-.29,1.93h-1.22l1.05-7h2.12c.65,0,1.16.19,1.52.58ZM28.89,43.28c.22-.25.33-.6.33-1.06,0-.33-.08-.58-.25-.75-.17-.17-.41-.25-.72-.25h-.95l-.37,2.43h1.03c.41,0,.72-.12.94-.37Z"/>
        <path class="cls-1" d="M37.04,39.9l-1.04,7h-1.14l.62-4.16-2,3.42h-.54l-1.08-3.46-.63,4.2h-1.14l1.05-7h.99l1.31,4.36,2.56-4.36h1.04Z"/>
      </g>
      <rect class="cls-1" x="23.52" y="51.75" width="5.63" height="1.71"/>
      <g>
        <path class="cls-1" d="M17.55,58.8c-.07-.08-.1-.19-.1-.32,0-.15.04-.28.11-.38s.17-.14.28-.14c.1,0,.19.04.25.12.06.08.1.19.1.32,0,.15-.04.27-.12.37s-.17.15-.28.15-.19-.04-.25-.13ZM17.82,57c-.07-.08-.1-.19-.1-.32,0-.15.04-.28.11-.38s.17-.14.28-.14c.1,0,.19.04.25.12.06.08.1.19.1.32,0,.15-.04.27-.12.37s-.17.15-.28.15-.19-.04-.25-.13Z"/>
        <path class="cls-1" d="M18.89,58.59c-.17-.23-.26-.56-.26-.97s.06-.81.18-1.16c.12-.35.28-.63.49-.83.21-.2.45-.31.72-.31.3,0,.53.12.71.35.17.23.26.56.26.97s-.06.81-.18,1.16c-.12.35-.28.63-.49.83-.21.2-.45.31-.72.31-.3,0-.53-.12-.71-.35ZM20.04,58.01c.11-.17.19-.37.25-.62.06-.25.08-.49.08-.72s-.04-.39-.11-.5c-.07-.11-.17-.16-.3-.16-.15,0-.28.08-.38.25-.11.17-.19.37-.25.62-.06.25-.08.49-.08.72s.04.39.1.5c.07.11.17.16.3.16.15,0,.28-.08.38-.25Z"/>
        <path class="cls-1" d="M21.48,58.59c-.17-.23-.26-.56-.26-.97s.06-.81.18-1.16c.12-.35.28-.63.49-.83.21-.2.45-.31.72-.31.3,0,.53.12.71.35.17.23.26.56.26.97s-.06.81-.18,1.16-.28.63-.49.83c-.21.2-.45.31-.72.31-.3,0-.53-.12-.71-.35ZM22.63,58.01c.11-.17.19-.37.25-.62.06-.25.08-.49.08-.72s-.04-.39-.11-.5c-.07-.11-.17-.16-.3-.16-.15,0-.28.08-.38.25s-.19.37-.25.62c-.06.25-.08.49-.08.72s.04.39.11.5c.07.11.17.16.3.16.15,0,.28-.08.38-.25Z"/>
      </g>
      <g>
        <path class="cls-1" d="M40.74,58.8c-.07-.08-.1-.19-.1-.32,0-.15.04-.28.11-.38s.17-.14.28-.14c.1,0,.18.04.25.12.06.08.1.19.1.32,0,.15-.04.27-.12.37-.08.1-.17.15-.28.15s-.19-.04-.25-.13ZM41.02,57c-.07-.08-.1-.19-.1-.32,0-.15.04-.28.12-.38s.17-.14.28-.14c.1,0,.19.04.25.12.07.08.1.19.1.32,0,.15-.04.27-.12.37-.08.1-.17.15-.28.15-.1,0-.19-.04-.25-.13Z"/>
        <path class="cls-1" d="M42.09,58.59c-.17-.23-.26-.56-.26-.97s.06-.81.18-1.16.28-.63.49-.83c.21-.2.45-.31.72-.31.3,0,.53.12.71.35.17.23.26.56.26.97s-.06.81-.18,1.16c-.12.35-.28.63-.49.83-.21.2-.45.31-.72.31-.3,0-.53-.12-.71-.35ZM43.23,58.01c.11-.17.19-.37.25-.62.06-.25.08-.49.08-.72s-.04-.39-.11-.5c-.07-.11-.17-.16-.3-.16-.15,0-.28.08-.38.25-.11.17-.19.37-.25.62-.06.25-.08.49-.08.72s.04.39.11.5.17.16.3.16c.15,0,.28-.08.38-.25Z"/>
        <path class="cls-1" d="M44.68,58.59c-.17-.23-.26-.56-.26-.97s.06-.81.18-1.16c.12-.35.28-.63.49-.83.21-.2.45-.31.72-.31.3,0,.53.12.71.35.17.23.26.56.26.97s-.06.81-.18,1.16-.28.63-.49.83c-.21.2-.45.31-.72.31-.3,0-.53-.12-.71-.35ZM45.82,58.01c.11-.17.19-.37.25-.62.06-.25.08-.49.08-.72s-.04-.39-.11-.5c-.07-.11-.17-.16-.3-.16-.15,0-.28.08-.38.25s-.19.37-.25.62c-.06.25-.08.49-.08.72s.04.39.11.5c.07.11.17.16.3.16.15,0,.28-.08.38-.25Z"/>
      </g>
    </g>
  </g>
</svg>